# xmcd CD database file
#
# Track frame offsets:
#	150
#	34581
#	69306
#	89480
#	108517
#	135173
#	157413
#	198928
#	222497
#	251390
#	275846
#	299511
#
# Disc length: 4277 seconds
#
# Revision: 0
# Processed by: cddbd v1.4PL0 Copyright (c) Steve Scherf et al.
# Submitted via: CDex 1.50Beta7
#
DISCID=b810b30c
DTITLE=Jagjit Singh - Sharabi Ghazals
DYEAR=1900
DGENRE=Rhythmic Soul
TTITLE0=Huzoor Aap Ka Bhi Ihtraam
TTITLE1=Jhoom Ke Jab Rindon Ne Piladi
TTITLE2=Meh Pila Kar Aap Ka Kya Jayega
TTITLE3=Jawan Hay Raat Saqiya
TTITLE4=Sheikh Ji Thori Si
TTITLE5=Mujhe Hosh Nahin
TTITLE6=Mein Nashe Main Hoon
TTITLE7=Baat Saaqi Ki Na Taali Jayegi
TTITLE8=Ek Jaam Me Gire Hain
TTITLE9=Tere Nisar Saqiya
TTITLE10=Dhal Gaya Aftaab Ay Saaqi
TTITLE11=Dairo Haram Mein Basne Walo
EXTD=
EXTT0=
EXTT1=
EXTT2=
EXTT3=
EXTT4=
EXTT5=
EXTT6=
EXTT7=
EXTT8=
EXTT9=
EXTT10=
EXTT11=
PLAYORDER=
